<?xml version="1.0" encoding="utf-8"?>
<!-- Generator: Adobe Illustrator 27.0.1, SVG Export Plug-In . SVG Version: 6.00 Build 0)  -->
<svg version="1.1" id="Laag_1" xmlns="http://www.w3.org/2000/svg" xmlns:xlink="http://www.w3.org/1999/xlink" x="0px" y="0px"
	 viewBox="0 0 818.4 404" style="enable-background:new 0 0 818.4 404;" xml:space="preserve">
<style type="text/css">
	.st0{fill:#B2B2B2;}
	.st1{fill:none;stroke:#000000;stroke-width:1.4885;stroke-miterlimit:10;}
</style>
<g>
	<path class="st0" d="M72.7,135.8c213.9-0.4,468.8-0.4,682.7,0C541.5,136.2,286.6,136.2,72.7,135.8L72.7,135.8z"/>
</g>
<g>
	<path class="st0" d="M72.7,172c213.9-0.4,468.8-0.4,682.7,0C541.5,172.4,286.6,172.4,72.7,172L72.7,172z"/>
</g>
<g>
	<path class="st0" d="M72.7,208.2c213.9-0.4,468.8-0.4,682.7,0C541.5,208.6,286.6,208.6,72.7,208.2L72.7,208.2z"/>
</g>
<g>
	<path class="st0" d="M72.7,244.4c213.9-0.4,468.8-0.4,682.7,0C541.5,244.8,286.6,244.8,72.7,244.4L72.7,244.4z"/>
</g>
<g>
	<path class="st0" d="M72.7,280.6c213.9-0.4,468.8-0.4,682.7,0C541.5,281,286.6,281,72.7,280.6L72.7,280.6z"/>
</g>
<g>
	<path class="st0" d="M72.7,316.7c213.9-0.4,468.8-0.4,682.7,0C541.5,317.2,286.6,317.2,72.7,316.7L72.7,316.7z"/>
</g>
<g>
	<path class="st0" d="M88.6,326c-0.5-76.6-0.5-162.4,0-239C89.1,163.6,89.1,249.5,88.6,326L88.6,326z"/>
</g>
<g>
	<path class="st0" d="M176.3,326c-0.5-76.6-0.5-162.4,0-239C176.7,163.6,176.7,249.5,176.3,326L176.3,326z"/>
</g>
<g>
	<path class="st0" d="M263.9,326c-0.5-76.6-0.5-162.4,0-239C264.4,163.6,264.4,249.5,263.9,326L263.9,326z"/>
</g>
<g>
	<path class="st0" d="M351.5,326c-0.5-76.6-0.5-162.4,0-239C352,163.6,352,249.5,351.5,326L351.5,326z"/>
</g>
<g>
	<path class="st0" d="M439.2,326c-0.5-76.6-0.5-162.4,0-239C439.6,163.6,439.6,249.5,439.2,326L439.2,326z"/>
</g>
<g>
	<path class="st0" d="M526.8,326c-0.5-76.6-0.5-162.4,0-239C527.3,163.6,527.3,249.5,526.8,326L526.8,326z"/>
</g>
<g>
	<path class="st0" d="M614.5,326c-0.5-76.6-0.5-162.4,0-239C614.9,163.6,614.9,249.5,614.5,326L614.5,326z"/>
</g>
<g>
	<path class="st0" d="M702.1,326c-0.5-76.6-0.5-162.4,0-239C702.6,163.6,702.6,249.5,702.1,326L702.1,326z"/>
</g>
<g>
	<g>
		<path d="M96.8,285.5c-1.8-18.6-3.6-37.1-5.5-55.5c-0.6-6.1-1.4-13.5-2.3-22.1s-1.8-17.2-2.7-25.8l41.5-4.2
			c0.7,7,1.5,15.3,2.4,24.7c0.9,9.5,1.8,18.6,2.7,27.3c1.4,13.7,3.2,30.8,5.4,51.5L96.8,285.5z M206,266.2l-39.2,14.9
			c-9.8-14.1-22-31.1-36.6-50.9V230c1.7-4,4.7-11.4,9.1-22.2c4.4-10.8,8.9-22.5,13.5-35.1l40.7,7.4c-4.2,9.3-10.2,23.8-18.2,43.5
			l0.1,0.2C187.6,240.9,197.8,255.1,206,266.2z"/>
		<path d="M262.6,268.7l-41.5,4.2c-0.6-6.1-1.3-13.5-2.2-22.3c-0.8-8.8-1.9-19.8-3.3-33.2c-0.6-6.1-1.4-13.5-2.3-22.1
			c-0.9-8.6-1.8-17.2-2.7-25.8l41.5-4.2c0.7,6.6,1.4,14.2,2.2,22.7s1.6,16.9,2.5,25.3c1.3,13.2,2.4,23.4,3.2,30.5
			C260.8,250.9,261.6,259.2,262.6,268.7z"/>
		<path d="M370.4,223.2c-0.5,5.8-0.9,11.6-1.1,17.3c-0.3,5.7-0.5,12-0.6,18.8c-0.6,0.1-1.3,0.1-2,0.2s-1.7,0.2-2.8,0.3
			c-12.9,1.3-24.5,1.3-34.8-0.1c-10.4-1.3-19.7-4.4-28-9c-7.2-4.1-12.8-9-17-14.8c-4.1-5.8-6.6-12.7-7.4-20.7
			c-0.8-7.9,0.2-15.1,3.1-21.6s7.5-12.5,13.9-17.9c7.5-6.4,16.3-11.3,26.5-14.8s21.2-5.8,33-7c0.7-0.1,1.3-0.1,1.7-0.2
			c0.4,0,1.1-0.1,2.2-0.2c0.9,4,2.1,9.1,3.6,15.4c1.5,6.3,3.2,12.9,5.2,19.7c-0.7,0.1-1.4,0.1-2.2,0.2s-1.6,0.2-2.4,0.2
			c-1.6,0.2-5,0.7-10.1,1.5c-5.1,0.9-9.6,1.9-13.4,3.2c-5.7,1.9-10.3,4.2-13.6,6.8c-3.4,2.7-4.8,6.1-4.4,10.2
			c0.4,3.9,2.5,6.8,6.5,8.8c3.9,2,8.8,3.4,14.7,4.1c3.7,0.5,8.2,0.6,13.7,0.4c5.5-0.2,8.9-0.4,10.2-0.5c1-0.1,2-0.2,3.1-0.3
			C368.7,223.4,369.6,223.3,370.4,223.2z"/>
		<path d="M391.4,255.7c-1.8-18.6-3.6-37.1-5.5-55.5c-0.6-6.1-1.4-13.5-2.3-22.1s-1.8-17.2-2.7-25.8l41.5-4.2
			c0.7,7,1.5,15.3,2.4,24.7c0.9,9.5,1.8,18.6,2.7,27.3c1.4,13.7,3.2,30.8,5.4,51.5L391.4,255.7z M500.6,236.3l-39.2,14.9
			c-9.8-14.1-22-31.1-36.6-50.9v-0.2c1.7-4,4.7-11.4,9.1-22.2s8.9-22.5,13.5-35.1l40.7,7.4c-4.2,9.3-10.2,23.8-18.2,43.5l0.1,0.2
			C482.2,211.1,492.4,225.2,500.6,236.3z"/>
		<path d="M595.2,235l-41.5,4.2c-0.6-6.1-1.3-13.5-2.2-22.3c-0.8-8.8-1.9-19.8-3.3-33.2c-0.6-6.1-1.4-13.5-2.3-22.1
			c-0.9-8.6-1.8-17.2-2.7-25.8l41.5-4.2c0.7,6.6,1.4,14.2,2.2,22.7s1.6,16.9,2.5,25.3c1.3,13.2,2.4,23.4,3.2,30.5
			S594.2,225.6,595.2,235z"/>
		<path d="M701.3,154.9c-3.8,0.4-8.7,0.9-14.7,1.4c-6,0.6-10.8,1.1-14.5,1.4c0.5,4.8,0.9,9.3,1.3,13.4c0.4,4.2,0.8,9,1.4,14.6
			c0.9,8.6,1.7,16.2,2.4,22.9s1.4,12.7,1.9,17.9l-41.5,4.2c-0.5-4.8-1-10.2-1.5-16s-1.3-13.9-2.4-24.2c-0.5-4.6-1-9.3-1.4-13.9
			c-0.5-4.6-1-9.5-1.6-14.7c-5,0.5-10.7,1.1-16.9,1.8s-10.3,1.1-12.2,1.3l-3.5-34.8c2.2-0.2,8.8-0.9,19.7-2
			c10.9-1.1,21.1-2.1,30.6-3.1c7.6-0.8,16.8-1.7,27.7-2.8c10.9-1.1,18.2-1.9,21.9-2.3L701.3,154.9z"/>
	</g>
</g>
<g>
	<g>
		<path d="M72.7,100.6c10.3,0,20.7,0,31,0c26.8,0,53.5,0,80.3,0c37.7,0,75.4,0,113,0c42.3,0,84.6,0,126.9,0c41.1,0,82.2,0,123.4,0
			c34,0,68.1,0,102.1,0c21,0,42.1,0,63.1,0c3.8,0,7.6-0.1,11.4,0c1.2,0,4.8,0.5,1.9-0.1c-3.1-0.6,1.7,0.6,2.6,0.8
			c3.8,0.9-1.3-0.3-1.1-0.6c0.1-0.1,2,1.1,2.3,1.2c-0.2-0.1,2.2,1.3,2.2,1.4c-0.1,0.3-3.7-3.5-1-0.7c0.6,0.6,1.2,1.3,1.8,1.8
			c2.5,2.3-1.2-2.4-0.3-0.5c0.1,0.1,2.5,3.8,2.3,4c-0.4,0.3-1.4-4.2-0.5-1.1c0.2,0.8,0.5,1.7,0.7,2.6c1,3.3-0.3-0.7-0.1-1.3
			c-0.2,0.4,0.1,2.2,0.1,2.8v0.1c0,0.8,0,1.6,0,2.5c0.1,31.6,0.2,63.2,0.3,94.8c0.1,34.1,0.2,68.3,0.3,102.4c0,2,0,4,0,6
			c0,10.5,9.2,20.5,20,20s20-8.8,20-20c-0.1-26.2-0.2-52.4-0.2-78.6c-0.1-37.7-0.2-75.3-0.3-113c0-14.4,0.4-28.5-8-41.2
			c-10.4-15.6-27-23.3-45.4-23.3c-16.1,0-32.1,0-48.2,0c-31.2,0-62.4,0-93.5,0c-40,0-80,0-120,0c-42.9,0-85.8,0-128.7,0
			c-39.8,0-79.7,0-119.5,0c-30.4,0-60.9,0-91.3,0c-15.1,0-30.3-0.1-45.5,0c-0.7,0-1.3,0-2,0c-10.5,0-20.5,9.2-20,20
			C53.2,91.4,61.5,100.6,72.7,100.6L72.7,100.6z"/>
	</g>
</g>
<line class="st1" x1="72.7" y1="99.6" x2="755.4" y2="99.6"/>
</svg>
